PathFileType	4	(x/y/z)	Passive_Pref0007.trc
DataRate	CameraRate	NumFrames	NumMarkers	Units	OrigDataRate	OrigDataStartFrame	OrigNumFrames
240	240	10	50	mm	240	38	299
Frame#	Time	R_AC			L_AC			HEAD			STERN			C7			L_IC			R_IC			L_ASIS			R_ASIS			L_GT			R_GT			R_PSIS			L_PSIS			SACRAL			L_LAT_KNEE			L_MED_KNEE			R_LAT_KNEE			R_MED_KNEE			L_LAT_ANK			L_MED_ANK			R_LAT_ANK			R_MED_ANK			L_THIGH_PROX_POST			L_THIGH_PROX_ANT			L_THIGH_DIST_ANT			L_THIGH_DIST_POST			R_THIGH_PROX_POST			R_THIGH_PROX_ANT			R_THIGH_DIST_ANT			R_THIGH_DIST_POST			L_SHANK_PROX_POST			L_SHANK_PROX_ANT			L_SHANK_DIST_ANT			L_SHANK_DIST_POST			R_SHANK_PROX_POST			R_SHANK_PROX_ANT			R_SHANK_DIST_ANT			R_SHANK_DIST_POST			L_HEEL_LAT			L_HEEL_SUP			L_HEEL_MED			R_HEEL_LAT			R_HEEL_SUP			R_HEEL_MED			L_1ST_MET			L_5TH_MET			L_TOE			R_1ST_MET			R_5TH_MET			R_TOE			
		X1	Y1	Z1	X2	Y2	Z2	X3	Y3	Z3	X4	Y4	Z4	X5	Y5	Z5	X6	Y6	Z6	X7	Y7	Z7	X8	Y8	Z8	X9	Y9	Z9	X10	Y10	Z10	X11	Y11	Z11	X12	Y12	Z12	X13	Y13	Z13	X14	Y14	Z14	X15	Y15	Z15	X16	Y16	Z16	X17	Y17	Z17	X18	Y18	Z18	X19	Y19	Z19	X20	Y20	Z20	X21	Y21	Z21	X22	Y22	Z22	X23	Y23	Z23	X24	Y24	Z24	X25	Y25	Z25	X26	Y26	Z26	X27	Y27	Z27	X28	Y28	Z28	X29	Y29	Z29	X30	Y30	Z30	X31	Y31	Z31	X32	Y32	Z32	X33	Y33	Z33	X34	Y34	Z34	X35	Y35	Z35	X36	Y36	Z36	X37	Y37	Z37	X38	Y38	Z38	X39	Y39	Z39	X40	Y40	Z40	X41	Y41	Z41	X42	Y42	Z42	X43	Y43	Z43	X44	Y44	Z44	X45	Y45	Z45	X46	Y46	Z46	X47	Y47	Z47	X48	Y48	Z48	X49	Y49	Z49	X50	Y50	Z50	

38	0.15468	-592.29	1512.6	458.15	-624.88	1520.4	54.57	-554.13	1831.4	270.15	-520.18	1466.5	262.57	-675.78	1558.4	264.6	-633.72	1084	113.5	-617.81	1110	452.48	-554.42	1018.3	148.48	-552.87	1013.5	419.35	-652.14	933.09	99.973	-669.62	941.41	464.45	-769.57	1024.5	324.43	-775.22	1021	239.06	-783.24	989.48	281.27	-520.52	551.08	139.13	-501.42	566.07	276.13	-715.05	531.11	459.66	-687.86	516.31	325.26	-499.56	111.44	162.97	-511.28	112.58	247.27	-1071.8	242.96	390.21	-1016.5	229.32	300.18	-579.91	774.92	109.93	-515.51	787.83	134.57	-500.05	717.69	145.77	-555.55	701.92	120.22	-724.41	800.78	445.28	-666.39	799.33	472.09	-678.21	724.71	468.28	-727.72	726.88	442.58	-509.69	497.07	151.93	-460.71	532.19	165.2	-450.46	466.14	179.2	-496.94	436.27	155.88	-861.13	455.26	449.73	-821.94	412.66	455.32	-877.86	363.35	440.33	-916.6	402.37	431.63	-551.95	43.838	160.29	-575.24	71.279	189.87	-567.58	42.508	228.8	-1131.6	291.97	336.29	-1096.8	300.61	308.9	-1104.9	267.31	281.02	-356.58	46.515	284.15	-353.01	48.254	165.76	-296.65	78.97	250.69	-1027.3	71.856	311.53	-1081.5	102.65	416.06	-1008.5	37.964	374.84
39	0.15886	-587.07	1513.5	457.87	-619.14	1521.2	54.277	-548.58	1832.2	269.44	-514.85	1467.2	262.36	-670.35	1559.3	264.23	-628.53	1084.8	113.13	-612.97	1110.7	452.18	-549.21	1019.2	148.04	-547.61	1014.5	418.88	-647.06	934	99.576	-663.78	941.79	464.07	-764.44	1024.9	324.06	-769.94	1021.7	238.71	-778	990.01	280.77	-517.28	551.29	138.45	-497.99	566.34	275.39	-704.25	530.96	460.36	-676.47	515.99	326.01	-499.16	111.46	162.93	-510.78	112.7	247.1	-1062.9	246.5	390.46	-1007.4	231.75	300.68	-575.57	775.7	109.53	-510.97	788.2	134	-495.78	717.98	145.1	-551.46	702.48	119.64	-716.87	800.27	445.4	-658.83	799.55	472.16	-669.8	724.78	468.59	-719.36	726.31	442.94	-506.77	497.23	151.31	-457.56	532.05	164.49	-447.71	465.96	178.56	-494.41	436.35	155.33	-850.29	456.54	450.15	-811.54	413.55	455.93	-867.89	364.74	440.85	-906.23	404.13	431.98	-551.84	44.021	160.31	-575.05	71.482	189.91	-567.41	42.698	228.83	-1122	295.94	336.07	-1087	303.93	308.71	-1095.4	270.54	281.03	-356.34	46.107	283.97	-352.86	47.672	165.62	-296.28	78.259	250.45	-1019.9	74.26	313.26	-1074.1	106.36	417.1	-1001.9	39.67	376.75
40	0.16305	-581.92	1514.3	457.64	-613.4	1522.1	54.009	-543.01	1833	268.75	-509.56	1467.9	262.2	-664.94	1560.2	263.87	-623.33	1085.7	112.77	-608.2	1111.4	451.9	-544.01	1020	147.65	-542.4	1015.5	418.45	-641.97	934.91	99.187	-658.01	942.2	463.7	-759.36	1025.2	323.66	-764.72	1022.4	238.32	-772.82	990.54	280.23	-514.13	551.5	137.83	-494.68	566.6	274.7	-693.45	530.9	461.04	-665.07	515.8	326.73	-498.77	111.5	162.91	-510.31	112.82	246.95	-1053.7	249.92	390.65	-998.14	234.11	301.13	-571.24	776.45	109.12	-506.47	788.57	133.51	-491.6	718.25	144.51	-547.43	703.04	119.1	-709.37	799.82	445.48	-651.33	799.82	472.22	-661.44	724.92	468.88	-711.03	725.81	443.25	-503.95	497.38	150.74	-454.51	531.92	163.83	-445.05	465.79	177.97	-491.96	436.44	154.82	-839.4	457.85	450.53	-801.07	414.49	456.52	-857.81	366.15	441.33	-895.78	405.88	432.31	-551.72	44.203	160.33	-574.86	71.676	189.97	-567.25	42.882	228.85	-1112.3	299.62	335.79	-1077.1	307.01	308.45	-1085.8	273.5	281.01	-356.11	45.731	283.82	-352.7	47.139	165.5	-295.92	77.596	250.24	-1012.1	76.628	315.02	-1066.2	110.01	418.23	-994.65	41.559	378.73
41	0.16723	-576.84	1515.1	457.44	-607.68	1523	53.766	-537.43	1833.7	268.08	-504.29	1468.6	262.07	-659.56	1561.1	263.54	-618.12	1086.6	112.41	-603.49	1112.1	451.62	-538.84	1020.7	147.3	-537.25	1016.5	418.07	-636.89	935.83	98.806	-652.31	942.61	463.34	-754.32	1025.6	323.22	-759.57	1023.1	237.89	-767.68	991.08	279.64	-511.09	551.7	137.25	-491.5	566.84	274.06	-682.67	530.93	461.7	-653.7	515.73	327.43	-498.4	111.55	162.9	-509.86	112.94	246.81	-1044.3	253.22	390.8	-988.66	236.39	301.52	-566.9	777.16	108.71	-502.02	788.93	133.08	-487.49	718.5	143.99	-543.45	703.58	118.62	-701.89	799.42	445.51	-643.89	800.14	472.27	-653.12	725.12	469.16	-702.7	725.38	443.51	-501.22	497.53	150.22	-451.57	531.79	163.23	-442.49	465.62	177.42	-489.59	436.52	154.35	-828.46	459.17	450.87	-790.54	415.46	457.07	-847.63	367.56	441.78	-885.25	407.61	432.6	-551.61	44.384	160.35	-574.66	71.863	190.03	-567.1	43.062	228.87	-1102.5	303.02	335.48	-1067.2	309.85	308.12	-1076.1	276.17	280.96	-355.9	45.385	283.69	-352.56	46.654	165.39	-295.6	76.976	250.07	-1003.7	78.945	316.81	-1057.8	113.59	419.42	-986.85	43.6	380.76
42	0.17141	-571.83	1515.9	457.27	-601.98	1523.9	53.546	-531.84	1834.5	267.43	-499.06	1469.2	261.97	-654.21	1562	263.23	-612.91	1087.5	112.05	-598.83	1112.8	451.34	-533.68	1021.5	146.98	-532.15	1017.5	417.72	-631.81	936.75	98.436	-646.67	943.05	462.99	-749.32	1025.9	322.75	-754.46	1023.8	237.44	-762.59	991.62	279.02	-508.16	551.9	136.73	-488.43	567.06	273.47	-671.91	531.07	462.34	-642.36	515.8	328.1	-498.04	111.6	162.9	-509.44	113.06	246.68	-1034.8	256.38	390.91	-978.97	238.58	301.86	-562.57	777.84	108.3	-497.63	789.28	132.71	-483.46	718.73	143.52	-539.54	704.12	118.18	-694.44	799.08	445.5	-636.5	800.53	472.31	-644.85	725.39	469.43	-694.4	725.02	443.71	-498.58	497.67	149.74	-448.72	531.66	162.69	-440.01	465.46	176.93	-487.3	436.61	153.92	-817.49	460.49	451.18	-779.94	416.47	457.58	-837.35	368.97	442.2	-874.65	409.32	432.86	-551.5	44.564	160.37	-574.47	72.043	190.1	-566.96	43.238	228.89	-1092.7	306.11	335.13	-1057.2	312.44	307.73	-1066.3	278.58	280.87	-355.7	45.066	283.59	-352.42	46.213	165.31	-295.29	76.395	249.92	-994.92	81.198	318.6	-1048.9	117.06	420.65	-978.45	45.763	382.81
43	0.17559	-566.87	1516.7	457.15	-596.3	1524.7	53.351	-526.23	1835.3	266.81	-493.86	1469.9	261.92	-648.88	1562.9	262.93	-607.68	1088.3	111.69	-594.21	1113.5	451.07	-528.54	1022.3	146.71	-527.1	1018.6	417.4	-626.73	937.66	98.077	-641.08	943.5	462.65	-744.34	1026.2	322.26	-749.41	1024.6	236.95	-757.54	992.17	278.37	-505.32	552.08	136.24	-485.48	567.27	272.93	-661.17	531.31	462.96	-631.06	515.99	328.75	-497.71	111.67	162.91	-509.04	113.18	246.57	-1025	259.39	390.97	-969.1	240.68	302.14	-558.24	778.49	107.89	-493.28	789.61	132.4	-479.52	718.94	143.12	-535.69	704.64	117.79	-687.02	798.8	445.45	-629.16	800.97	472.34	-636.62	725.72	469.67	-686.11	724.72	443.86	-496.03	497.81	149.3	-445.98	531.54	162.19	-437.63	465.32	176.47	-485.09	436.7	153.53	-806.49	461.81	451.45	-769.29	417.5	458.07	-826.98	370.38	442.58	-863.98	410.99	433.1	-551.4	44.741	160.39	-574.28	72.217	190.17	-566.82	43.411	228.91	-1082.7	308.9	334.76	-1047.2	314.79	307.29	-1056.4	280.7	280.77	-355.52	44.772	283.51	-352.28	45.812	165.24	-295	75.852	249.8	-985.67	83.373	320.38	-1039.5	120.41	421.93	-969.48	48.012	384.88
44	0.17977	-561.98	1517.5	457.05	-590.64	1525.6	53.177	-520.62	1836	266.22	-488.68	1470.6	261.9	-643.59	1563.8	262.66	-602.44	1089.2	111.33	-589.63	1114.2	450.81	-523.41	1023	146.46	-522.11	1019.6	417.11	-621.66	938.57	97.731	-635.56	943.98	462.31	-739.4	1026.5	321.76	-744.41	1025.4	236.46	-752.53	992.73	277.7	-502.58	552.26	135.81	-482.64	567.47	272.44	-650.46	531.65	463.56	-619.82	516.3	329.36	-497.38	111.74	162.92	-508.66	113.29	246.47	-1015.1	262.22	391.01	-959.05	242.68	302.39	-553.93	779.1	107.47	-489	789.92	132.14	-475.65	719.12	142.76	-531.92	705.15	117.44	-679.63	798.57	445.36	-621.87	801.47	472.37	-628.44	726.12	469.9	-677.85	724.5	443.96	-493.58	497.95	148.9	-443.33	531.42	161.73	-435.33	465.18	176.06	-482.96	436.79	153.17	-795.46	463.13	451.69	-758.59	418.56	458.53	-816.53	371.77	442.94	-853.26	412.62	433.32	-551.3	44.916	160.41	-574.09	72.388	190.24	-566.69	43.582	228.92	-1072.7	311.39	334.38	-1037.1	316.89	306.82	-1046.4	282.56	280.66	-355.33	44.503	283.45	-352.15	45.448	165.19	-294.73	75.342	249.7	-975.97	85.458	322.13	-1029.7	123.61	423.23	-959.96	50.316	386.94
45	0.18395	-557.15	1518.3	456.98	-585.01	1526.5	53.026	-514.99	1836.8	265.66	-483.54	1471.3	261.91	-638.32	1564.7	262.4	-597.19	1090	110.98	-585.09	1114.9	450.54	-518.31	1023.8	146.24	-517.16	1020.7	416.85	-616.61	939.48	97.4	-630.08	944.47	462	-734.48	1026.8	321.24	-739.45	1026.1	235.95	-747.56	993.28	277.02	-499.94	552.43	135.4	-479.91	567.65	271.99	-639.78	532.09	464.14	-608.63	516.74	329.95	-497.08	111.81	162.94	-508.3	113.41	246.38	-1005	264.87	391.01	-948.83	244.57	302.59	-549.64	779.68	107.05	-484.77	790.22	131.92	-471.86	719.27	142.44	-528.22	705.65	117.13	-672.27	798.41	445.24	-614.64	802.01	472.38	-620.31	726.58	470.12	-669.6	724.34	444.01	-491.21	498.08	148.54	-440.78	531.31	161.32	-433.12	465.04	175.68	-480.91	436.88	152.85	-784.43	464.42	451.91	-747.85	419.63	458.97	-806	373.13	443.28	-842.49	414.2	433.53	-551.21	45.087	160.43	-573.9	72.555	190.32	-566.57	43.751	228.93	-1062.6	313.57	333.98	-1027	318.75	306.33	-1036.4	284.15	280.53	-355.16	44.256	283.42	-352.03	45.117	165.14	-294.48	74.862	249.62	-965.86	87.441	323.85	-1019.5	126.64	424.53	-949.91	52.64	388.97
46	0.18813	-552.38	1519	456.94	-579.4	1527.3	52.895	-509.36	1837.6	265.14	-478.42	1472	261.95	-633.09	1565.6	262.16	-591.93	1090.9	110.64	-580.57	1115.7	450.28	-513.23	1024.5	146.04	-512.25	1021.8	416.61	-611.58	940.37	97.082	-624.66	944.99	461.69	-729.59	1027.1	320.72	-734.53	1026.9	235.43	-742.62	993.84	276.34	-497.39	552.6	135.04	-477.28	567.82	271.57	-629.14	532.62	464.69	-597.5	517.3	330.52	-496.78	111.89	162.97	-507.95	113.53	246.3	-994.69	267.32	390.99	-938.43	246.34	302.75	-545.38	780.23	106.63	-480.6	790.49	131.75	-468.14	719.41	142.16	-524.59	706.13	116.85	-664.95	798.29	445.09	-607.45	802.61	472.4	-612.23	727.1	470.31	-661.37	724.24	444.02	-488.92	498.21	148.2	-438.33	531.2	160.94	-430.99	464.92	175.34	-478.93	436.97	152.55	-773.38	465.7	452.12	-737.06	420.7	459.38	-795.39	374.46	443.59	-831.67	415.71	433.72	-551.12	45.256	160.46	-573.7	72.72	190.41	-566.46	43.919	228.94	-1052.5	315.46	333.59	-1016.9	320.37	305.82	-1026.2	285.49	280.4	-355	44.032	283.41	-351.91	44.816	165.11	-294.24	74.411	249.56	-955.33	89.311	325.52	-1008.8	129.48	425.82	-939.36	54.953	390.95
47	0.19231	-547.65	1519.8	456.92	-573.81	1528.2	52.783	-503.72	1838.3	264.65	-473.33	1472.8	262.02	-627.88	1566.5	261.94	-586.67	1091.7	110.3	-576.09	1116.4	450.02	-508.16	1025.2	145.86	-507.4	1023	416.39	-606.57	941.25	96.779	-619.29	945.52	461.4	-724.72	1027.4	320.2	-729.64	1027.7	234.92	-737.71	994.4	275.66	-494.93	552.76	134.7	-474.75	567.97	271.19	-618.54	533.25	465.24	-586.43	517.97	331.06	-496.5	111.97	162.99	-507.63	113.65	246.24	-984.26	269.56	390.95	-927.87	247.99	302.89	-541.15	780.74	106.22	-476.49	790.75	131.61	-464.48	719.52	141.9	-521.03	706.6	116.61	-657.67	798.23	444.91	-600.3	803.26	472.4	-604.19	727.67	470.49	-653.17	724.21	443.99	-486.72	498.34	147.89	-435.97	531.1	160.59	-428.94	464.8	175.02	-477.02	437.05	152.27	-762.33	466.94	452.31	-726.24	421.78	459.76	-784.71	375.75	443.88	-820.8	417.16	433.89	-551.03	45.422	160.48	-573.51	72.885	190.49	-566.35	44.086	228.94	-1042.2	317.04	333.21	-1006.7	321.74	305.32	-1015.9	286.58	280.26	-354.83	43.828	283.41	-351.79	44.542	165.09	-294.01	73.985	249.51	-944.43	91.057	327.13	-997.84	132.1	427.09	-928.34	57.223	392.86
